<svg width="234" height="86" viewBox="0 0 234 86" fill="none" xmlns="http://www.w3.org/2000/svg">
<g filter="url(#filter0_d_322_74)">
<path d="M5.526 27V14.4H12.258C13.998 14.4 15.282 14.712 16.11 15.336C16.938 15.948 17.352 16.734 17.352 17.694C17.352 18.33 17.172 18.9 16.812 19.404C16.464 19.896 15.954 20.286 15.282 20.574C14.61 20.862 13.782 21.006 12.798 21.006L13.158 20.034C14.142 20.034 14.988 20.172 15.696 20.448C16.416 20.724 16.968 21.126 17.352 21.654C17.748 22.17 17.946 22.794 17.946 23.526C17.946 24.618 17.49 25.47 16.578 26.082C15.678 26.694 14.358 27 12.618 27H5.526ZM9.702 24.03H12.258C12.726 24.03 13.074 23.946 13.302 23.778C13.542 23.61 13.662 23.364 13.662 23.04C13.662 22.716 13.542 22.47 13.302 22.302C13.074 22.134 12.726 22.05 12.258 22.05H9.414V19.242H11.682C12.162 19.242 12.51 19.164 12.726 19.008C12.954 18.84 13.068 18.606 13.068 18.306C13.068 17.994 12.954 17.76 12.726 17.604C12.51 17.448 12.162 17.37 11.682 17.37H9.702V24.03ZM24.7579 27.18C23.5579 27.18 22.5079 26.958 21.6079 26.514C20.7199 26.07 20.0299 25.464 19.5379 24.696C19.0459 23.916 18.7999 23.04 18.7999 22.068C18.7999 21.072 19.0399 20.19 19.5199 19.422C20.0119 18.654 20.6779 18.054 21.5179 17.622C22.3699 17.19 23.3239 16.974 24.3799 16.974C25.3519 16.974 26.2459 17.166 27.0619 17.55C27.8899 17.934 28.5499 18.504 29.0419 19.26C29.5459 20.016 29.7979 20.952 29.7979 22.068C29.7979 22.212 29.7919 22.374 29.7799 22.554C29.7679 22.722 29.7559 22.878 29.7439 23.022H22.1659V21.06H27.5839L26.0539 21.582C26.0539 21.198 25.9819 20.874 25.8379 20.61C25.7059 20.334 25.5199 20.124 25.2799 19.98C25.0399 19.824 24.7519 19.746 24.4159 19.746C24.0799 19.746 23.7859 19.824 23.5339 19.98C23.2939 20.124 23.1079 20.334 22.9759 20.61C22.8439 20.874 22.7779 21.198 22.7779 21.582V22.194C22.7779 22.614 22.8619 22.974 23.0299 23.274C23.1979 23.574 23.4379 23.802 23.7499 23.958C24.0619 24.102 24.4399 24.174 24.8839 24.174C25.3399 24.174 25.7119 24.114 25.9999 23.994C26.2999 23.874 26.6119 23.694 26.9359 23.454L29.0599 25.596C28.5799 26.112 27.9859 26.508 27.2779 26.784C26.5819 27.048 25.7419 27.18 24.7579 27.18ZM36.3736 27.18C35.2456 27.18 34.2436 26.964 33.3676 26.532C32.4916 26.1 31.8016 25.5 31.2976 24.732C30.8056 23.952 30.5596 23.064 30.5596 22.068C30.5596 21.072 30.8056 20.19 31.2976 19.422C31.8016 18.654 32.4916 18.054 33.3676 17.622C34.2436 17.19 35.2456 16.974 36.3736 16.974C37.5736 16.974 38.5996 17.232 39.4516 17.748C40.3036 18.264 40.8916 18.978 41.2156 19.89L38.0656 21.438C37.8616 20.982 37.6096 20.652 37.3096 20.448C37.0216 20.244 36.7036 20.142 36.3556 20.142C36.0556 20.142 35.7736 20.214 35.5096 20.358C35.2576 20.502 35.0536 20.718 34.8976 21.006C34.7536 21.282 34.6816 21.636 34.6816 22.068C34.6816 22.5 34.7536 22.86 34.8976 23.148C35.0536 23.436 35.2576 23.652 35.5096 23.796C35.7736 23.94 36.0556 24.012 36.3556 24.012C36.7036 24.012 37.0216 23.91 37.3096 23.706C37.6096 23.502 37.8616 23.172 38.0656 22.716L41.2156 24.264C40.8916 25.176 40.3036 25.89 39.4516 26.406C38.5996 26.922 37.5736 27.18 36.3736 27.18ZM47.27 27.18C46.154 27.18 45.164 26.964 44.3 26.532C43.448 26.088 42.776 25.482 42.284 24.714C41.792 23.946 41.546 23.064 41.546 22.068C41.546 21.072 41.792 20.19 42.284 19.422C42.776 18.654 43.448 18.054 44.3 17.622C45.164 17.19 46.154 16.974 47.27 16.974C48.386 16.974 49.376 17.19 50.24 17.622C51.104 18.054 51.776 18.654 52.256 19.422C52.748 20.19 52.994 21.072 52.994 22.068C52.994 23.064 52.748 23.946 52.256 24.714C51.776 25.482 51.104 26.088 50.24 26.532C49.376 26.964 48.386 27.18 47.27 27.18ZM47.27 24.012C47.57 24.012 47.84 23.94 48.08 23.796C48.32 23.652 48.512 23.436 48.656 23.148C48.8 22.848 48.872 22.488 48.872 22.068C48.872 21.636 48.8 21.282 48.656 21.006C48.512 20.718 48.32 20.502 48.08 20.358C47.84 20.214 47.57 20.142 47.27 20.142C46.97 20.142 46.7 20.214 46.46 20.358C46.22 20.502 46.028 20.718 45.884 21.006C45.74 21.282 45.668 21.636 45.668 22.068C45.668 22.488 45.74 22.848 45.884 23.148C46.028 23.436 46.22 23.652 46.46 23.796C46.7 23.94 46.97 24.012 47.27 24.012ZM67.2992 16.974C68.0432 16.974 68.7092 17.13 69.2972 17.442C69.8972 17.742 70.3652 18.216 70.7012 18.864C71.0492 19.512 71.2232 20.352 71.2232 21.384V27H67.1552V22.086C67.1552 21.474 67.0532 21.042 66.8492 20.79C66.6452 20.526 66.3812 20.394 66.0572 20.394C65.8172 20.394 65.6012 20.454 65.4092 20.574C65.2172 20.694 65.0612 20.886 64.9412 21.15C64.8332 21.402 64.7792 21.75 64.7792 22.194V27H60.7112V22.086C60.7112 21.474 60.6152 21.042 60.4232 20.79C60.2312 20.526 59.9612 20.394 59.6132 20.394C59.3732 20.394 59.1572 20.454 58.9652 20.574C58.7732 20.694 58.6172 20.886 58.4972 21.15C58.3892 21.402 58.3352 21.75 58.3352 22.194V27H54.2672V17.154H58.1372V19.98L57.3452 19.188C57.7172 18.444 58.2152 17.892 58.8392 17.532C59.4632 17.16 60.1592 16.974 60.9272 16.974C61.7912 16.974 62.5532 17.202 63.2132 17.658C63.8852 18.102 64.3352 18.81 64.5632 19.782L63.3212 19.584C63.6812 18.768 64.2032 18.132 64.8872 17.676C65.5832 17.208 66.3872 16.974 67.2992 16.974ZM78.5997 27.18C77.3997 27.18 76.3497 26.958 75.4497 26.514C74.5617 26.07 73.8717 25.464 73.3797 24.696C72.8877 23.916 72.6417 23.04 72.6417 22.068C72.6417 21.072 72.8817 20.19 73.3617 19.422C73.8537 18.654 74.5197 18.054 75.3597 17.622C76.2117 17.19 77.1657 16.974 78.2217 16.974C79.1937 16.974 80.0877 17.166 80.9037 17.55C81.7317 17.934 82.3917 18.504 82.8837 19.26C83.3877 20.016 83.6397 20.952 83.6397 22.068C83.6397 22.212 83.6337 22.374 83.6217 22.554C83.6097 22.722 83.5977 22.878 83.5857 23.022H76.0077V21.06H81.4257L79.8957 21.582C79.8957 21.198 79.8237 20.874 79.6797 20.61C79.5477 20.334 79.3617 20.124 79.1217 19.98C78.8817 19.824 78.5937 19.746 78.2577 19.746C77.9217 19.746 77.6277 19.824 77.3757 19.98C77.1357 20.124 76.9497 20.334 76.8177 20.61C76.6857 20.874 76.6197 21.198 76.6197 21.582V22.194C76.6197 22.614 76.7037 22.974 76.8717 23.274C77.0397 23.574 77.2797 23.802 77.5917 23.958C77.9037 24.102 78.2817 24.174 78.7257 24.174C79.1817 24.174 79.5537 24.114 79.8417 23.994C80.1417 23.874 80.4537 23.694 80.7777 23.454L82.9017 25.596C82.4217 26.112 81.8277 26.508 81.1197 26.784C80.4237 27.048 79.5837 27.18 78.5997 27.18ZM96.2779 27V25.254L95.9899 24.786V21.474C95.9899 20.994 95.8399 20.628 95.5399 20.376C95.2519 20.124 94.7779 19.998 94.1179 19.998C93.6739 19.998 93.2239 20.07 92.7679 20.214C92.3119 20.346 91.9219 20.532 91.5979 20.772L90.3019 18.09C90.8779 17.73 91.5679 17.454 92.3719 17.262C93.1759 17.07 93.9619 16.974 94.7299 16.974C96.4219 16.974 97.7299 17.352 98.6539 18.108C99.5899 18.864 100.058 20.064 100.058 21.708V27H96.2779ZM93.4879 27.18C92.6839 27.18 92.0119 27.042 91.4719 26.766C90.9319 26.49 90.5239 26.124 90.2479 25.668C89.9719 25.2 89.8339 24.684 89.8339 24.12C89.8339 23.484 89.9959 22.944 90.3199 22.5C90.6439 22.056 91.1359 21.72 91.7959 21.492C92.4679 21.264 93.3139 21.15 94.3339 21.15H96.3859V23.112H94.9819C94.5499 23.112 94.2319 23.184 94.0279 23.328C93.8359 23.46 93.7399 23.664 93.7399 23.94C93.7399 24.168 93.8239 24.36 93.9919 24.516C94.1719 24.66 94.4119 24.732 94.7119 24.732C94.9879 24.732 95.2399 24.66 95.4679 24.516C95.7079 24.36 95.8819 24.12 95.9899 23.796L96.5119 25.002C96.3559 25.734 96.0259 26.28 95.5219 26.64C95.0179 27 94.3399 27.18 93.4879 27.18ZM120.245 16.974C120.989 16.974 121.655 17.13 122.243 17.442C122.843 17.742 123.311 18.216 123.647 18.864C123.995 19.512 124.169 20.352 124.169 21.384V27H120.101V22.086C120.101 21.474 119.999 21.042 119.795 20.79C119.591 20.526 119.327 20.394 119.003 20.394C118.763 20.394 118.547 20.454 118.355 20.574C118.163 20.694 118.007 20.886 117.887 21.15C117.779 21.402 117.725 21.75 117.725 22.194V27H113.657V22.086C113.657 21.474 113.561 21.042 113.369 20.79C113.177 20.526 112.907 20.394 112.559 20.394C112.319 20.394 112.103 20.454 111.911 20.574C111.719 20.694 111.563 20.886 111.443 21.15C111.335 21.402 111.281 21.75 111.281 22.194V27H107.213V17.154H111.083V19.98L110.291 19.188C110.663 18.444 111.161 17.892 111.785 17.532C112.409 17.16 113.105 16.974 113.873 16.974C114.737 16.974 115.499 17.202 116.159 17.658C116.831 18.102 117.281 18.81 117.509 19.782L116.267 19.584C116.627 18.768 117.149 18.132 117.833 17.676C118.529 17.208 119.333 16.974 120.245 16.974ZM131.545 27.18C130.345 27.18 129.295 26.958 128.395 26.514C127.507 26.07 126.817 25.464 126.325 24.696C125.833 23.916 125.587 23.04 125.587 22.068C125.587 21.072 125.827 20.19 126.307 19.422C126.799 18.654 127.465 18.054 128.305 17.622C129.157 17.19 130.111 16.974 131.167 16.974C132.139 16.974 133.033 17.166 133.849 17.55C134.677 17.934 135.337 18.504 135.829 19.26C136.333 20.016 136.585 20.952 136.585 22.068C136.585 22.212 136.579 22.374 136.567 22.554C136.555 22.722 136.543 22.878 136.531 23.022H128.953V21.06H134.371L132.841 21.582C132.841 21.198 132.769 20.874 132.625 20.61C132.493 20.334 132.307 20.124 132.067 19.98C131.827 19.824 131.539 19.746 131.203 19.746C130.867 19.746 130.573 19.824 130.321 19.98C130.081 20.124 129.895 20.334 129.763 20.61C129.631 20.874 129.565 21.198 129.565 21.582V22.194C129.565 22.614 129.649 22.974 129.817 23.274C129.985 23.574 130.225 23.802 130.537 23.958C130.849 24.102 131.227 24.174 131.671 24.174C132.127 24.174 132.499 24.114 132.787 23.994C133.087 23.874 133.399 23.694 133.723 23.454L135.847 25.596C135.367 26.112 134.773 26.508 134.065 26.784C133.369 27.048 132.529 27.18 131.545 27.18ZM150.901 16.974C151.645 16.974 152.311 17.13 152.899 17.442C153.499 17.742 153.967 18.216 154.303 18.864C154.651 19.512 154.825 20.352 154.825 21.384V27H150.757V22.086C150.757 21.474 150.655 21.042 150.451 20.79C150.247 20.526 149.983 20.394 149.659 20.394C149.419 20.394 149.203 20.454 149.011 20.574C148.819 20.694 148.663 20.886 148.543 21.15C148.435 21.402 148.381 21.75 148.381 22.194V27H144.313V22.086C144.313 21.474 144.217 21.042 144.025 20.79C143.833 20.526 143.563 20.394 143.215 20.394C142.975 20.394 142.759 20.454 142.567 20.574C142.375 20.694 142.219 20.886 142.099 21.15C141.991 21.402 141.937 21.75 141.937 22.194V27H137.869V17.154H141.739V19.98L140.947 19.188C141.319 18.444 141.817 17.892 142.441 17.532C143.065 17.16 143.761 16.974 144.529 16.974C145.393 16.974 146.155 17.202 146.815 17.658C147.487 18.102 147.937 18.81 148.165 19.782L146.923 19.584C147.283 18.768 147.805 18.132 148.489 17.676C149.185 17.208 149.989 16.974 150.901 16.974ZM163.159 27.18C162.259 27.18 161.533 27 160.981 26.64C160.429 26.28 160.027 25.722 159.775 24.966C159.535 24.21 159.415 23.244 159.415 22.068C159.415 20.904 159.547 19.95 159.811 19.206C160.075 18.45 160.483 17.892 161.035 17.532C161.599 17.16 162.307 16.974 163.159 16.974C164.023 16.974 164.815 17.178 165.535 17.586C166.255 17.994 166.831 18.582 167.263 19.35C167.695 20.106 167.911 21.012 167.911 22.068C167.911 23.124 167.695 24.036 167.263 24.804C166.831 25.56 166.255 26.148 165.535 26.568C164.815 26.976 164.023 27.18 163.159 27.18ZM156.589 27V13.644H160.657V18.468L160.477 22.068L160.459 25.668V27H156.589ZM162.187 24.012C162.487 24.012 162.757 23.94 162.997 23.796C163.237 23.652 163.429 23.436 163.573 23.148C163.717 22.848 163.789 22.488 163.789 22.068C163.789 21.636 163.717 21.282 163.573 21.006C163.429 20.718 163.237 20.502 162.997 20.358C162.757 20.214 162.487 20.142 162.187 20.142C161.887 20.142 161.617 20.214 161.377 20.358C161.137 20.502 160.945 20.718 160.801 21.006C160.657 21.282 160.585 21.636 160.585 22.068C160.585 22.488 160.657 22.848 160.801 23.148C160.945 23.436 161.137 23.652 161.377 23.796C161.617 23.94 161.887 24.012 162.187 24.012ZM174.629 27.18C173.429 27.18 172.379 26.958 171.479 26.514C170.591 26.07 169.901 25.464 169.409 24.696C168.917 23.916 168.671 23.04 168.671 22.068C168.671 21.072 168.911 20.19 169.391 19.422C169.883 18.654 170.549 18.054 171.389 17.622C172.241 17.19 173.195 16.974 174.251 16.974C175.223 16.974 176.117 17.166 176.933 17.55C177.761 17.934 178.421 18.504 178.913 19.26C179.417 20.016 179.669 20.952 179.669 22.068C179.669 22.212 179.663 22.374 179.651 22.554C179.639 22.722 179.627 22.878 179.615 23.022H172.037V21.06H177.455L175.925 21.582C175.925 21.198 175.853 20.874 175.709 20.61C175.577 20.334 175.391 20.124 175.151 19.98C174.911 19.824 174.623 19.746 174.287 19.746C173.951 19.746 173.657 19.824 173.405 19.98C173.165 20.124 172.979 20.334 172.847 20.61C172.715 20.874 172.649 21.198 172.649 21.582V22.194C172.649 22.614 172.733 22.974 172.901 23.274C173.069 23.574 173.309 23.802 173.621 23.958C173.933 24.102 174.311 24.174 174.755 24.174C175.211 24.174 175.583 24.114 175.871 23.994C176.171 23.874 176.483 23.694 176.807 23.454L178.931 25.596C178.451 26.112 177.857 26.508 177.149 26.784C176.453 27.048 175.613 27.18 174.629 27.18ZM180.953 27V17.154H184.823V20.124L184.193 19.278C184.493 18.51 184.973 17.934 185.633 17.55C186.293 17.166 187.085 16.974 188.009 16.974V20.574C187.829 20.55 187.667 20.532 187.523 20.52C187.391 20.508 187.253 20.502 187.109 20.502C186.497 20.502 185.993 20.664 185.597 20.988C185.213 21.3 185.021 21.846 185.021 22.626V27H180.953ZM199.76 27.18C198.644 27.18 197.654 26.964 196.79 26.532C195.938 26.088 195.266 25.482 194.774 24.714C194.282 23.946 194.036 23.064 194.036 22.068C194.036 21.072 194.282 20.19 194.774 19.422C195.266 18.654 195.938 18.054 196.79 17.622C197.654 17.19 198.644 16.974 199.76 16.974C200.876 16.974 201.866 17.19 202.73 17.622C203.594 18.054 204.266 18.654 204.746 19.422C205.238 20.19 205.484 21.072 205.484 22.068C205.484 23.064 205.238 23.946 204.746 24.714C204.266 25.482 203.594 26.088 202.73 26.532C201.866 26.964 200.876 27.18 199.76 27.18ZM199.76 24.012C200.06 24.012 200.33 23.94 200.57 23.796C200.81 23.652 201.002 23.436 201.146 23.148C201.29 22.848 201.362 22.488 201.362 22.068C201.362 21.636 201.29 21.282 201.146 21.006C201.002 20.718 200.81 20.502 200.57 20.358C200.33 20.214 200.06 20.142 199.76 20.142C199.46 20.142 199.19 20.214 198.95 20.358C198.71 20.502 198.518 20.718 198.374 21.006C198.23 21.282 198.158 21.636 198.158 22.068C198.158 22.488 198.23 22.848 198.374 23.148C198.518 23.436 198.71 23.652 198.95 23.796C199.19 23.94 199.46 24.012 199.76 24.012ZM207.207 27V17.64C207.207 16.368 207.585 15.354 208.341 14.598C209.109 13.842 210.195 13.464 211.599 13.464C212.031 13.464 212.463 13.506 212.895 13.59C213.339 13.662 213.711 13.782 214.011 13.95L213.039 16.776C212.907 16.716 212.763 16.662 212.607 16.614C212.451 16.566 212.289 16.542 212.121 16.542C211.833 16.542 211.599 16.632 211.419 16.812C211.239 16.992 211.149 17.28 211.149 17.676V18.144L211.275 19.818V27H207.207ZM205.857 20.664V17.694H213.291V20.664H205.857ZM5.526 49V36.4H9.018L14.058 44.626H12.222L17.118 36.4H20.61L20.646 49H16.776L16.74 42.232H17.352L14.004 47.866H12.132L8.64 42.232H9.396V49H5.526ZM28.0098 49.18C26.8098 49.18 25.7598 48.958 24.8598 48.514C23.9718 48.07 23.2818 47.464 22.7898 46.696C22.2978 45.916 22.0518 45.04 22.0518 44.068C22.0518 43.072 22.2918 42.19 22.7718 41.422C23.2638 40.654 23.9298 40.054 24.7698 39.622C25.6218 39.19 26.5758 38.974 27.6318 38.974C28.6038 38.974 29.4978 39.166 30.3138 39.55C31.1418 39.934 31.8018 40.504 32.2938 41.26C32.7978 42.016 33.0498 42.952 33.0498 44.068C33.0498 44.212 33.0438 44.374 33.0318 44.554C33.0198 44.722 33.0078 44.878 32.9958 45.022H25.4178V43.06H30.8358L29.3058 43.582C29.3058 43.198 29.2338 42.874 29.0898 42.61C28.9578 42.334 28.7718 42.124 28.5318 41.98C28.2918 41.824 28.0038 41.746 27.6678 41.746C27.3318 41.746 27.0378 41.824 26.7858 41.98C26.5458 42.124 26.3598 42.334 26.2278 42.61C26.0958 42.874 26.0298 43.198 26.0298 43.582V44.194C26.0298 44.614 26.1138 44.974 26.2818 45.274C26.4498 45.574 26.6898 45.802 27.0018 45.958C27.3138 46.102 27.6918 46.174 28.1358 46.174C28.5918 46.174 28.9638 46.114 29.2518 45.994C29.5518 45.874 29.8638 45.694 30.1878 45.454L32.3118 47.596C31.8318 48.112 31.2378 48.508 30.5298 48.784C29.8338 49.048 28.9938 49.18 28.0098 49.18ZM38.6536 49.18C37.8016 49.18 37.0096 48.976 36.2776 48.568C35.5576 48.148 34.9816 47.56 34.5496 46.804C34.1176 46.036 33.9016 45.124 33.9016 44.068C33.9016 43.012 34.1176 42.106 34.5496 41.35C34.9816 40.582 35.5576 39.994 36.2776 39.586C37.0096 39.178 37.8016 38.974 38.6536 38.974C39.5176 38.974 40.2256 39.16 40.7776 39.532C41.3296 39.892 41.7376 40.45 42.0016 41.206C42.2656 41.95 42.3976 42.904 42.3976 44.068C42.3976 45.244 42.2716 46.21 42.0196 46.966C41.7796 47.722 41.3836 48.28 40.8316 48.64C40.2916 49 39.5656 49.18 38.6536 49.18ZM39.6256 46.012C39.9256 46.012 40.1956 45.94 40.4356 45.796C40.6756 45.652 40.8676 45.436 41.0116 45.148C41.1556 44.848 41.2276 44.488 41.2276 44.068C41.2276 43.636 41.1556 43.282 41.0116 43.006C40.8676 42.718 40.6756 42.502 40.4356 42.358C40.1956 42.214 39.9256 42.142 39.6256 42.142C39.3256 42.142 39.0556 42.214 38.8156 42.358C38.5756 42.502 38.3836 42.718 38.2396 43.006C38.0956 43.282 38.0236 43.636 38.0236 44.068C38.0236 44.488 38.0956 44.848 38.2396 45.148C38.3836 45.436 38.5756 45.652 38.8156 45.796C39.0556 45.94 39.3256 46.012 39.6256 46.012ZM41.3536 49V47.668L41.3356 44.068L41.1556 40.468V35.644H45.2236V49H41.3536ZM51.849 49.288C50.793 49.288 49.773 49.168 48.789 48.928C47.805 48.688 46.995 48.376 46.359 47.992L47.727 44.896C48.327 45.244 48.993 45.526 49.725 45.742C50.469 45.946 51.189 46.048 51.885 46.048C52.293 46.048 52.611 46.024 52.839 45.976C53.079 45.916 53.253 45.838 53.361 45.742C53.469 45.634 53.523 45.508 53.523 45.364C53.523 45.136 53.397 44.956 53.145 44.824C52.893 44.692 52.557 44.584 52.137 44.5C51.729 44.404 51.279 44.308 50.787 44.212C50.295 44.104 49.797 43.966 49.293 43.798C48.801 43.63 48.345 43.408 47.925 43.132C47.517 42.856 47.187 42.496 46.935 42.052C46.683 41.596 46.557 41.032 46.557 40.36C46.557 39.58 46.773 38.872 47.205 38.236C47.649 37.588 48.303 37.072 49.167 36.688C50.043 36.304 51.129 36.112 52.425 36.112C53.277 36.112 54.117 36.202 54.945 36.382C55.773 36.562 56.517 36.838 57.177 37.21L55.899 40.288C55.275 39.976 54.669 39.742 54.081 39.586C53.505 39.43 52.941 39.352 52.389 39.352C51.981 39.352 51.657 39.388 51.417 39.46C51.177 39.532 51.003 39.628 50.895 39.748C50.799 39.868 50.751 40 50.751 40.144C50.751 40.36 50.877 40.534 51.129 40.666C51.381 40.786 51.711 40.888 52.119 40.972C52.539 41.056 52.995 41.146 53.487 41.242C53.991 41.338 54.489 41.47 54.981 41.638C55.473 41.806 55.923 42.028 56.331 42.304C56.751 42.58 57.087 42.94 57.339 43.384C57.591 43.828 57.717 44.38 57.717 45.04C57.717 45.808 57.495 46.516 57.051 47.164C56.619 47.8 55.971 48.316 55.107 48.712C54.243 49.096 53.157 49.288 51.849 49.288ZM65.6951 38.974C66.4511 38.974 67.1351 39.13 67.7471 39.442C68.3591 39.742 68.8391 40.216 69.1871 40.864C69.5471 41.512 69.7271 42.352 69.7271 43.384V49H65.6591V44.086C65.6591 43.474 65.5511 43.042 65.3351 42.79C65.1191 42.526 64.8251 42.394 64.4531 42.394C64.1771 42.394 63.9191 42.46 63.6791 42.592C63.4511 42.712 63.2651 42.916 63.1211 43.204C62.9891 43.492 62.9231 43.882 62.9231 44.374V49H58.8551V35.644H62.9231V42.034L61.9511 41.206C62.3351 40.462 62.8511 39.904 63.4991 39.532C64.1591 39.16 64.8911 38.974 65.6951 38.974ZM77.4518 49V47.254L77.1638 46.786V43.474C77.1638 42.994 77.0138 42.628 76.7138 42.376C76.4258 42.124 75.9518 41.998 75.2918 41.998C74.8478 41.998 74.3978 42.07 73.9418 42.214C73.4858 42.346 73.0958 42.532 72.7718 42.772L71.4758 40.09C72.0518 39.73 72.7418 39.454 73.5458 39.262C74.3498 39.07 75.1358 38.974 75.9038 38.974C77.5958 38.974 78.9038 39.352 79.8278 40.108C80.7638 40.864 81.2318 42.064 81.2318 43.708V49H77.4518ZM74.6618 49.18C73.8578 49.18 73.1858 49.042 72.6458 48.766C72.1058 48.49 71.6978 48.124 71.4218 47.668C71.1458 47.2 71.0078 46.684 71.0078 46.12C71.0078 45.484 71.1698 44.944 71.4938 44.5C71.8178 44.056 72.3098 43.72 72.9697 43.492C73.6418 43.264 74.4878 43.15 75.5078 43.15H77.5598V45.112H76.1558C75.7238 45.112 75.4058 45.184 75.2018 45.328C75.0098 45.46 74.9138 45.664 74.9138 45.94C74.9138 46.168 74.9978 46.36 75.1658 46.516C75.3458 46.66 75.5858 46.732 75.8857 46.732C76.1618 46.732 76.4138 46.66 76.6418 46.516C76.8818 46.36 77.0558 46.12 77.1638 45.796L77.6858 47.002C77.5298 47.734 77.1998 48.28 76.6958 48.64C76.1918 49 75.5138 49.18 74.6618 49.18ZM82.9898 49V39.154H86.8598V42.124L86.2298 41.278C86.5298 40.51 87.0098 39.934 87.6698 39.55C88.3298 39.166 89.1218 38.974 90.0458 38.974V42.574C89.8658 42.55 89.7038 42.532 89.5598 42.52C89.4278 42.508 89.2898 42.502 89.1458 42.502C88.5338 42.502 88.0298 42.664 87.6338 42.988C87.2498 43.3 87.0578 43.846 87.0578 44.626V49H82.9898ZM96.5469 49.18C95.3469 49.18 94.2969 48.958 93.3969 48.514C92.5089 48.07 91.8189 47.464 91.3269 46.696C90.8349 45.916 90.5889 45.04 90.5889 44.068C90.5889 43.072 90.8289 42.19 91.3089 41.422C91.8009 40.654 92.4669 40.054 93.3069 39.622C94.1589 39.19 95.1129 38.974 96.1689 38.974C97.1409 38.974 98.0349 39.166 98.8509 39.55C99.6789 39.934 100.339 40.504 100.831 41.26C101.335 42.016 101.587 42.952 101.587 44.068C101.587 44.212 101.581 44.374 101.569 44.554C101.557 44.722 101.545 44.878 101.533 45.022H93.9549V43.06H99.3729L97.8429 43.582C97.8429 43.198 97.7709 42.874 97.6269 42.61C97.4949 42.334 97.3089 42.124 97.0689 41.98C96.8289 41.824 96.5409 41.746 96.2049 41.746C95.8689 41.746 95.5749 41.824 95.3229 41.98C95.0829 42.124 94.8969 42.334 94.7649 42.61C94.6329 42.874 94.5669 43.198 94.5669 43.582V44.194C94.5669 44.614 94.6509 44.974 94.8189 45.274C94.9869 45.574 95.2269 45.802 95.5389 45.958C95.8509 46.102 96.2289 46.174 96.6729 46.174C97.1289 46.174 97.5009 46.114 97.7889 45.994C98.0889 45.874 98.4009 45.694 98.7249 45.454L100.849 47.596C100.369 48.112 99.7749 48.508 99.0669 48.784C98.3709 49.048 97.5309 49.18 96.5469 49.18ZM113.559 49.18C112.431 49.18 111.429 48.964 110.553 48.532C109.677 48.1 108.987 47.5 108.483 46.732C107.991 45.952 107.745 45.064 107.745 44.068C107.745 43.072 107.991 42.19 108.483 41.422C108.987 40.654 109.677 40.054 110.553 39.622C111.429 39.19 112.431 38.974 113.559 38.974C114.759 38.974 115.785 39.232 116.637 39.748C117.489 40.264 118.077 40.978 118.401 41.89L115.251 43.438C115.047 42.982 114.795 42.652 114.495 42.448C114.207 42.244 113.889 42.142 113.541 42.142C113.241 42.142 112.959 42.214 112.695 42.358C112.443 42.502 112.239 42.718 112.083 43.006C111.939 43.282 111.867 43.636 111.867 44.068C111.867 44.5 111.939 44.86 112.083 45.148C112.239 45.436 112.443 45.652 112.695 45.796C112.959 45.94 113.241 46.012 113.541 46.012C113.889 46.012 114.207 45.91 114.495 45.706C114.795 45.502 115.047 45.172 115.251 44.716L118.401 46.264C118.077 47.176 117.489 47.89 116.637 48.406C115.785 48.922 114.759 49.18 113.559 49.18ZM124.456 49.18C123.34 49.18 122.35 48.964 121.486 48.532C120.634 48.088 119.962 47.482 119.47 46.714C118.978 45.946 118.732 45.064 118.732 44.068C118.732 43.072 118.978 42.19 119.47 41.422C119.962 40.654 120.634 40.054 121.486 39.622C122.35 39.19 123.34 38.974 124.456 38.974C125.572 38.974 126.562 39.19 127.426 39.622C128.29 40.054 128.962 40.654 129.442 41.422C129.934 42.19 130.18 43.072 130.18 44.068C130.18 45.064 129.934 45.946 129.442 46.714C128.962 47.482 128.29 48.088 127.426 48.532C126.562 48.964 125.572 49.18 124.456 49.18ZM124.456 46.012C124.756 46.012 125.026 45.94 125.266 45.796C125.506 45.652 125.698 45.436 125.842 45.148C125.986 44.848 126.058 44.488 126.058 44.068C126.058 43.636 125.986 43.282 125.842 43.006C125.698 42.718 125.506 42.502 125.266 42.358C125.026 42.214 124.756 42.142 124.456 42.142C124.156 42.142 123.886 42.214 123.646 42.358C123.406 42.502 123.214 42.718 123.07 43.006C122.926 43.282 122.854 43.636 122.854 44.068C122.854 44.488 122.926 44.848 123.07 45.148C123.214 45.436 123.406 45.652 123.646 45.796C123.886 45.94 124.156 46.012 124.456 46.012ZM144.485 38.974C145.229 38.974 145.895 39.13 146.483 39.442C147.083 39.742 147.551 40.216 147.887 40.864C148.235 41.512 148.409 42.352 148.409 43.384V49H144.341V44.086C144.341 43.474 144.239 43.042 144.035 42.79C143.831 42.526 143.567 42.394 143.243 42.394C143.003 42.394 142.787 42.454 142.595 42.574C142.403 42.694 142.247 42.886 142.127 43.15C142.019 43.402 141.965 43.75 141.965 44.194V49H137.897V44.086C137.897 43.474 137.801 43.042 137.609 42.79C137.417 42.526 137.147 42.394 136.799 42.394C136.559 42.394 136.343 42.454 136.151 42.574C135.959 42.694 135.803 42.886 135.683 43.15C135.575 43.402 135.521 43.75 135.521 44.194V49H131.453V39.154H135.323V41.98L134.531 41.188C134.903 40.444 135.401 39.892 136.025 39.532C136.649 39.16 137.345 38.974 138.113 38.974C138.977 38.974 139.739 39.202 140.399 39.658C141.071 40.102 141.521 40.81 141.749 41.782L140.507 41.584C140.867 40.768 141.389 40.132 142.073 39.676C142.769 39.208 143.573 38.974 144.485 38.974ZM163.205 38.974C163.949 38.974 164.615 39.13 165.203 39.442C165.803 39.742 166.271 40.216 166.607 40.864C166.955 41.512 167.129 42.352 167.129 43.384V49H163.061V44.086C163.061 43.474 162.959 43.042 162.755 42.79C162.551 42.526 162.287 42.394 161.963 42.394C161.723 42.394 161.507 42.454 161.315 42.574C161.123 42.694 160.967 42.886 160.847 43.15C160.739 43.402 160.685 43.75 160.685 44.194V49H156.617V44.086C156.617 43.474 156.521 43.042 156.329 42.79C156.137 42.526 155.867 42.394 155.519 42.394C155.279 42.394 155.063 42.454 154.871 42.574C154.679 42.694 154.523 42.886 154.403 43.15C154.295 43.402 154.241 43.75 154.241 44.194V49H150.173V39.154H154.043V41.98L153.251 41.188C153.623 40.444 154.121 39.892 154.745 39.532C155.369 39.16 156.065 38.974 156.833 38.974C157.697 38.974 158.459 39.202 159.119 39.658C159.791 40.102 160.241 40.81 160.469 41.782L159.227 41.584C159.587 40.768 160.109 40.132 160.793 39.676C161.489 39.208 162.293 38.974 163.205 38.974ZM172.998 49.18C172.218 49.18 171.51 49.024 170.874 48.712C170.25 48.388 169.758 47.89 169.398 47.218C169.038 46.534 168.858 45.658 168.858 44.59V39.154H172.926V43.888C172.926 44.584 173.04 45.07 173.268 45.346C173.496 45.622 173.808 45.76 174.204 45.76C174.444 45.76 174.666 45.7 174.87 45.58C175.086 45.448 175.26 45.238 175.392 44.95C175.524 44.65 175.59 44.26 175.59 43.78V39.154H179.658V49H175.788V46.156L176.562 46.93C176.214 47.698 175.716 48.268 175.068 48.64C174.432 49 173.742 49.18 172.998 49.18ZM188.303 38.974C189.059 38.974 189.743 39.13 190.355 39.442C190.967 39.742 191.447 40.216 191.795 40.864C192.155 41.512 192.335 42.352 192.335 43.384V49H188.267V44.086C188.267 43.474 188.159 43.042 187.943 42.79C187.727 42.526 187.433 42.394 187.061 42.394C186.785 42.394 186.527 42.46 186.287 42.592C186.059 42.712 185.873 42.916 185.729 43.204C185.597 43.492 185.531 43.882 185.531 44.374V49H181.463V39.154H185.333V42.034L184.559 41.206C184.943 40.462 185.459 39.904 186.107 39.532C186.767 39.16 187.499 38.974 188.303 38.974ZM194.101 49V39.154H198.169V49H194.101ZM196.135 38.362C195.391 38.362 194.797 38.164 194.353 37.768C193.909 37.372 193.687 36.88 193.687 36.292C193.687 35.704 193.909 35.212 194.353 34.816C194.797 34.42 195.391 34.222 196.135 34.222C196.879 34.222 197.473 34.408 197.917 34.78C198.361 35.152 198.583 35.632 198.583 36.22C198.583 36.844 198.361 37.36 197.917 37.768C197.473 38.164 196.879 38.362 196.135 38.362ZM204.724 49.18C203.368 49.18 202.312 48.856 201.556 48.208C200.8 47.548 200.422 46.54 200.422 45.184V36.94H204.49V45.148C204.49 45.448 204.568 45.682 204.724 45.85C204.892 46.018 205.096 46.102 205.336 46.102C205.684 46.102 205.99 46.012 206.254 45.832L207.226 48.658C206.914 48.838 206.536 48.97 206.092 49.054C205.66 49.138 205.204 49.18 204.724 49.18ZM199.072 42.664V39.694H206.506V42.664H199.072ZM210.236 52.672C209.696 52.672 209.144 52.588 208.58 52.42C208.028 52.264 207.584 52.054 207.248 51.79L208.598 49C208.802 49.156 209.03 49.282 209.282 49.378C209.546 49.474 209.798 49.522 210.038 49.522C210.398 49.522 210.674 49.444 210.866 49.288C211.058 49.144 211.214 48.922 211.334 48.622L211.748 47.578L212.036 47.182L215.186 39.154H219.038L214.988 49.198C214.628 50.098 214.208 50.8 213.728 51.304C213.26 51.808 212.732 52.162 212.144 52.366C211.568 52.57 210.932 52.672 210.236 52.672ZM211.19 49.45L206.906 39.154H211.082L214.034 46.822L211.19 49.45ZM220.951 49.18C220.279 49.18 219.715 48.964 219.259 48.532C218.803 48.088 218.575 47.524 218.575 46.84C218.575 46.144 218.803 45.586 219.259 45.166C219.715 44.746 220.279 44.536 220.951 44.536C221.623 44.536 222.187 44.746 222.643 45.166C223.099 45.586 223.327 46.144 223.327 46.84C223.327 47.524 223.099 48.088 222.643 48.532C222.187 48.964 221.623 49.18 220.951 49.18ZM10.224 71.288C9.168 71.288 8.148 71.168 7.164 70.928C6.18 70.688 5.37 70.376 4.734 69.992L6.102 66.896C6.702 67.244 7.368 67.526 8.1 67.742C8.844 67.946 9.564 68.048 10.26 68.048C10.668 68.048 10.986 68.024 11.214 67.976C11.454 67.916 11.628 67.838 11.736 67.742C11.844 67.634 11.898 67.508 11.898 67.364C11.898 67.136 11.772 66.956 11.52 66.824C11.268 66.692 10.932 66.584 10.512 66.5C10.104 66.404 9.654 66.308 9.162 66.212C8.67 66.104 8.172 65.966 7.668 65.798C7.176 65.63 6.72 65.408 6.3 65.132C5.892 64.856 5.562 64.496 5.31 64.052C5.058 63.596 4.932 63.032 4.932 62.36C4.932 61.58 5.148 60.872 5.58 60.236C6.024 59.588 6.678 59.072 7.542 58.688C8.418 58.304 9.504 58.112 10.8 58.112C11.652 58.112 12.492 58.202 13.32 58.382C14.148 58.562 14.892 58.838 15.552 59.21L14.274 62.288C13.65 61.976 13.044 61.742 12.456 61.586C11.88 61.43 11.316 61.352 10.764 61.352C10.356 61.352 10.032 61.388 9.792 61.46C9.552 61.532 9.378 61.628 9.27 61.748C9.174 61.868 9.126 62 9.126 62.144C9.126 62.36 9.252 62.534 9.504 62.666C9.756 62.786 10.086 62.888 10.494 62.972C10.914 63.056 11.37 63.146 11.862 63.242C12.366 63.338 12.864 63.47 13.356 63.638C13.848 63.806 14.298 64.028 14.706 64.304C15.126 64.58 15.462 64.94 15.714 65.384C15.966 65.828 16.092 66.38 16.092 67.04C16.092 67.808 15.87 68.516 15.426 69.164C14.994 69.8 14.346 70.316 13.482 70.712C12.618 71.096 11.532 71.288 10.224 71.288ZM23.1881 71V69.254L22.9001 68.786V65.474C22.9001 64.994 22.7501 64.628 22.4501 64.376C22.1621 64.124 21.6881 63.998 21.0281 63.998C20.5841 63.998 20.1341 64.07 19.6781 64.214C19.2221 64.346 18.8321 64.532 18.5081 64.772L17.2121 62.09C17.7881 61.73 18.4781 61.454 19.2821 61.262C20.0861 61.07 20.8721 60.974 21.6401 60.974C23.3321 60.974 24.6401 61.352 25.5641 62.108C26.5001 62.864 26.9681 64.064 26.9681 65.708V71H23.1881ZM20.3981 71.18C19.5941 71.18 18.9221 71.042 18.3821 70.766C17.8421 70.49 17.4341 70.124 17.1581 69.668C16.8821 69.2 16.7441 68.684 16.7441 68.12C16.7441 67.484 16.9061 66.944 17.2301 66.5C17.5541 66.056 18.0461 65.72 18.7061 65.492C19.3781 65.264 20.2241 65.15 21.2441 65.15H23.2961V67.112H21.8921C21.4601 67.112 21.1421 67.184 20.9381 67.328C20.7461 67.46 20.6501 67.664 20.6501 67.94C20.6501 68.168 20.7341 68.36 20.9021 68.516C21.0821 68.66 21.3221 68.732 21.6221 68.732C21.8981 68.732 22.1501 68.66 22.3781 68.516C22.6181 68.36 22.7921 68.12 22.9001 67.796L23.4221 69.002C23.2661 69.734 22.9361 70.28 22.4321 70.64C21.9281 71 21.2501 71.18 20.3981 71.18ZM31.3404 71L27.3804 61.154H31.5564L34.5624 69.146H32.4564L35.6604 61.154H39.5124L35.5524 71H31.3404ZM45.3067 71.18C44.1067 71.18 43.0567 70.958 42.1567 70.514C41.2687 70.07 40.5787 69.464 40.0867 68.696C39.5947 67.916 39.3487 67.04 39.3487 66.068C39.3487 65.072 39.5887 64.19 40.0687 63.422C40.5607 62.654 41.2267 62.054 42.0667 61.622C42.9187 61.19 43.8727 60.974 44.9287 60.974C45.9007 60.974 46.7947 61.166 47.6107 61.55C48.4387 61.934 49.0987 62.504 49.5907 63.26C50.0947 64.016 50.3467 64.952 50.3467 66.068C50.3467 66.212 50.3407 66.374 50.3287 66.554C50.3167 66.722 50.3047 66.878 50.2927 67.022H42.7147V65.06H48.1327L46.6027 65.582C46.6027 65.198 46.5307 64.874 46.3867 64.61C46.2547 64.334 46.0687 64.124 45.8287 63.98C45.5887 63.824 45.3007 63.746 44.9647 63.746C44.6287 63.746 44.3347 63.824 44.0827 63.98C43.8427 64.124 43.6567 64.334 43.5247 64.61C43.3927 64.874 43.3267 65.198 43.3267 65.582V66.194C43.3267 66.614 43.4107 66.974 43.5787 67.274C43.7467 67.574 43.9867 67.802 44.2987 67.958C44.6107 68.102 44.9887 68.174 45.4327 68.174C45.8887 68.174 46.2607 68.114 46.5487 67.994C46.8487 67.874 47.1607 67.694 47.4847 67.454L49.6087 69.596C49.1287 70.112 48.5347 70.508 47.8267 70.784C47.1307 71.048 46.2907 71.18 45.3067 71.18ZM62.985 71V69.254L62.697 68.786V65.474C62.697 64.994 62.547 64.628 62.247 64.376C61.959 64.124 61.485 63.998 60.825 63.998C60.381 63.998 59.931 64.07 59.475 64.214C59.019 64.346 58.629 64.532 58.305 64.772L57.009 62.09C57.585 61.73 58.275 61.454 59.079 61.262C59.883 61.07 60.669 60.974 61.437 60.974C63.129 60.974 64.437 61.352 65.361 62.108C66.297 62.864 66.765 64.064 66.765 65.708V71H62.985ZM60.195 71.18C59.391 71.18 58.719 71.042 58.179 70.766C57.639 70.49 57.231 70.124 56.955 69.668C56.679 69.2 56.541 68.684 56.541 68.12C56.541 67.484 56.703 66.944 57.027 66.5C57.351 66.056 57.843 65.72 58.503 65.492C59.175 65.264 60.021 65.15 61.041 65.15H63.093V67.112H61.689C61.257 67.112 60.939 67.184 60.735 67.328C60.543 67.46 60.447 67.664 60.447 67.94C60.447 68.168 60.531 68.36 60.699 68.516C60.879 68.66 61.119 68.732 61.419 68.732C61.695 68.732 61.947 68.66 62.175 68.516C62.415 68.36 62.589 68.12 62.697 67.796L63.219 69.002C63.063 69.734 62.733 70.28 62.229 70.64C61.725 71 61.047 71.18 60.195 71.18ZM73.9195 71V57.644H77.9875V71H73.9195ZM79.7906 71V61.154H83.8586V71H79.7906ZM81.8246 60.362C81.0806 60.362 80.4866 60.164 80.0426 59.768C79.5986 59.372 79.3766 58.88 79.3766 58.292C79.3766 57.704 79.5986 57.212 80.0426 56.816C80.4866 56.42 81.0806 56.222 81.8246 56.222C82.5686 56.222 83.1626 56.408 83.6066 56.78C84.0506 57.152 84.2726 57.632 84.2726 58.22C84.2726 58.844 84.0506 59.36 83.6066 59.768C83.1626 60.164 82.5686 60.362 81.8246 60.362ZM86.1117 71V61.64C86.1117 60.368 86.4897 59.354 87.2457 58.598C88.0137 57.842 89.0997 57.464 90.5037 57.464C90.9357 57.464 91.3677 57.506 91.7997 57.59C92.2437 57.662 92.6157 57.782 92.9157 57.95L91.9437 60.776C91.8117 60.716 91.6677 60.662 91.5117 60.614C91.3557 60.566 91.1937 60.542 91.0257 60.542C90.7377 60.542 90.5037 60.632 90.3237 60.812C90.1437 60.992 90.0537 61.28 90.0537 61.676V62.144L90.1797 63.818V71H86.1117ZM84.7617 64.664V61.694H92.1957V64.664H84.7617ZM98.6739 71.18C97.4739 71.18 96.4239 70.958 95.5239 70.514C94.6359 70.07 93.9459 69.464 93.4539 68.696C92.9619 67.916 92.7159 67.04 92.7159 66.068C92.7159 65.072 92.9559 64.19 93.4359 63.422C93.9279 62.654 94.5939 62.054 95.4339 61.622C96.2859 61.19 97.2399 60.974 98.2959 60.974C99.2679 60.974 100.162 61.166 100.978 61.55C101.806 61.934 102.466 62.504 102.958 63.26C103.462 64.016 103.714 64.952 103.714 66.068C103.714 66.212 103.708 66.374 103.696 66.554C103.684 66.722 103.672 66.878 103.66 67.022H96.0819V65.06H101.5L99.9699 65.582C99.9699 65.198 99.8979 64.874 99.7539 64.61C99.6219 64.334 99.4359 64.124 99.1959 63.98C98.9559 63.824 98.6679 63.746 98.3319 63.746C97.9959 63.746 97.7019 63.824 97.4499 63.98C97.2099 64.124 97.0239 64.334 96.8919 64.61C96.7599 64.874 96.6939 65.198 96.6939 65.582V66.194C96.6939 66.614 96.7779 66.974 96.9459 67.274C97.1139 67.574 97.3539 67.802 97.6659 67.958C97.9779 68.102 98.3559 68.174 98.7999 68.174C99.2559 68.174 99.6279 68.114 99.9159 67.994C100.216 67.874 100.528 67.694 100.852 67.454L102.976 69.596C102.496 70.112 101.902 70.508 101.194 70.784C100.498 71.048 99.6579 71.18 98.6739 71.18ZM104.728 73.88L106.24 68.822L106.834 71.09C106.138 71.09 105.568 70.892 105.124 70.496C104.68 70.088 104.458 69.536 104.458 68.84C104.458 68.132 104.68 67.574 105.124 67.166C105.58 66.746 106.15 66.536 106.834 66.536C107.518 66.536 108.082 66.746 108.526 67.166C108.982 67.574 109.21 68.132 109.21 68.84C109.21 69.032 109.192 69.224 109.156 69.416C109.132 69.608 109.072 69.842 108.976 70.118C108.88 70.382 108.724 70.742 108.508 71.198L107.248 73.88H104.728ZM120.613 71.18C119.257 71.18 118.201 70.856 117.445 70.208C116.689 69.548 116.311 68.54 116.311 67.184V58.94H120.379V67.148C120.379 67.448 120.457 67.682 120.613 67.85C120.781 68.018 120.985 68.102 121.225 68.102C121.573 68.102 121.879 68.012 122.143 67.832L123.115 70.658C122.803 70.838 122.425 70.97 121.981 71.054C121.549 71.138 121.093 71.18 120.613 71.18ZM114.961 64.664V61.694H122.395V64.664H114.961ZM129.079 71.18C127.963 71.18 126.973 70.964 126.109 70.532C125.257 70.088 124.585 69.482 124.093 68.714C123.601 67.946 123.355 67.064 123.355 66.068C123.355 65.072 123.601 64.19 124.093 63.422C124.585 62.654 125.257 62.054 126.109 61.622C126.973 61.19 127.963 60.974 129.079 60.974C130.195 60.974 131.185 61.19 132.049 61.622C132.913 62.054 133.585 62.654 134.065 63.422C134.557 64.19 134.803 65.072 134.803 66.068C134.803 67.064 134.557 67.946 134.065 68.714C133.585 69.482 132.913 70.088 132.049 70.532C131.185 70.964 130.195 71.18 129.079 71.18ZM129.079 68.012C129.379 68.012 129.649 67.94 129.889 67.796C130.129 67.652 130.321 67.436 130.465 67.148C130.609 66.848 130.681 66.488 130.681 66.068C130.681 65.636 130.609 65.282 130.465 65.006C130.321 64.718 130.129 64.502 129.889 64.358C129.649 64.214 129.379 64.142 129.079 64.142C128.779 64.142 128.509 64.214 128.269 64.358C128.029 64.502 127.837 64.718 127.693 65.006C127.549 65.282 127.477 65.636 127.477 66.068C127.477 66.488 127.549 66.848 127.693 67.148C127.837 67.436 128.029 67.652 128.269 67.796C128.509 67.94 128.779 68.012 129.079 68.012ZM140.396 71.18C139.544 71.18 138.752 70.976 138.02 70.568C137.3 70.148 136.724 69.56 136.292 68.804C135.86 68.036 135.644 67.124 135.644 66.068C135.644 65.012 135.86 64.106 136.292 63.35C136.724 62.582 137.3 61.994 138.02 61.586C138.752 61.178 139.544 60.974 140.396 60.974C141.26 60.974 141.968 61.16 142.52 61.532C143.072 61.892 143.48 62.45 143.744 63.206C144.008 63.95 144.14 64.904 144.14 66.068C144.14 67.244 144.014 68.21 143.762 68.966C143.522 69.722 143.126 70.28 142.574 70.64C142.034 71 141.308 71.18 140.396 71.18ZM141.368 68.012C141.668 68.012 141.938 67.94 142.178 67.796C142.418 67.652 142.61 67.436 142.754 67.148C142.898 66.848 142.97 66.488 142.97 66.068C142.97 65.636 142.898 65.282 142.754 65.006C142.61 64.718 142.418 64.502 142.178 64.358C141.938 64.214 141.668 64.142 141.368 64.142C141.068 64.142 140.798 64.214 140.558 64.358C140.318 64.502 140.126 64.718 139.982 65.006C139.838 65.282 139.766 65.636 139.766 66.068C139.766 66.488 139.838 66.848 139.982 67.148C140.126 67.436 140.318 67.652 140.558 67.796C140.798 67.94 141.068 68.012 141.368 68.012ZM143.096 71V69.668L143.078 66.068L142.898 62.468V57.644H146.966V71H143.096ZM154.725 71V69.254L154.437 68.786V65.474C154.437 64.994 154.287 64.628 153.987 64.376C153.699 64.124 153.225 63.998 152.565 63.998C152.121 63.998 151.671 64.07 151.215 64.214C150.759 64.346 150.369 64.532 150.045 64.772L148.749 62.09C149.325 61.73 150.015 61.454 150.819 61.262C151.623 61.07 152.409 60.974 153.177 60.974C154.869 60.974 156.177 61.352 157.101 62.108C158.037 62.864 158.505 64.064 158.505 65.708V71H154.725ZM151.935 71.18C151.131 71.18 150.459 71.042 149.919 70.766C149.379 70.49 148.971 70.124 148.695 69.668C148.419 69.2 148.281 68.684 148.281 68.12C148.281 67.484 148.443 66.944 148.767 66.5C149.091 66.056 149.583 65.72 150.243 65.492C150.915 65.264 151.761 65.15 152.781 65.15H154.833V67.112H153.429C152.997 67.112 152.679 67.184 152.475 67.328C152.283 67.46 152.187 67.664 152.187 67.94C152.187 68.168 152.271 68.36 152.439 68.516C152.619 68.66 152.859 68.732 153.159 68.732C153.435 68.732 153.687 68.66 153.915 68.516C154.155 68.36 154.329 68.12 154.437 67.796L154.959 69.002C154.803 69.734 154.473 70.28 153.969 70.64C153.465 71 152.787 71.18 151.935 71.18ZM162.248 74.672C161.708 74.672 161.156 74.588 160.592 74.42C160.04 74.264 159.596 74.054 159.26 73.79L160.61 71C160.814 71.156 161.042 71.282 161.294 71.378C161.558 71.474 161.81 71.522 162.05 71.522C162.41 71.522 162.686 71.444 162.878 71.288C163.07 71.144 163.226 70.922 163.346 70.622L163.76 69.578L164.048 69.182L167.198 61.154H171.05L167 71.198C166.64 72.098 166.22 72.8 165.74 73.304C165.272 73.808 164.744 74.162 164.156 74.366C163.58 74.57 162.944 74.672 162.248 74.672ZM163.202 71.45L158.917 61.154H163.094L166.046 68.822L163.202 71.45ZM172.963 71.18C172.291 71.18 171.727 70.964 171.271 70.532C170.815 70.088 170.587 69.524 170.587 68.84C170.587 68.144 170.815 67.586 171.271 67.166C171.727 66.746 172.291 66.536 172.963 66.536C173.635 66.536 174.199 66.746 174.655 67.166C175.111 67.586 175.339 68.144 175.339 68.84C175.339 69.524 175.111 70.088 174.655 70.532C174.199 70.964 173.635 71.18 172.963 71.18Z" fill="url(#paint0_linear_322_74)"/>
</g>
<defs>
<filter id="filter0_d_322_74" x="2.73401" y="12.464" width="222.593" height="65.208" filterUnits="userSpaceOnUse" color-interpolation-filters="sRGB">
<feFlood flood-opacity="0" result="BackgroundImageFix"/>
<feColorMatrix in="SourceAlpha" type="matrix" values="0 0 0 0 0 0 0 0 0 0 0 0 0 0 0 0 0 0 127 0" result="hardAlpha"/>
<feOffset dy="1"/>
<feGaussianBlur stdDeviation="1"/>
<feComposite in2="hardAlpha" operator="out"/>
<feColorMatrix type="matrix" values="0 0 0 0 0 0 0 0 0 0 0 0 0 0 0 0 0 0 0.25 0"/>
<feBlend mode="normal" in2="BackgroundImageFix" result="effect1_dropShadow_322_74"/>
<feBlend mode="normal" in="SourceGraphic" in2="effect1_dropShadow_322_74" result="shape"/>
</filter>
<linearGradient id="paint0_linear_322_74" x1="4.5" y1="67.1511" x2="136.805" y2="-78.113" gradientUnits="userSpaceOnUse">
<stop offset="0.09" stop-color="#FF5757"/>
<stop offset="0.58" stop-color="#FFBD59"/>
</linearGradient>
</defs>
</svg>
